<svg width="106" height="71" viewBox="0 0 106 71" fill="none" xmlns="http://www.w3.org/2000/svg">
<path d="M36.9149 1.99996C38.4546 -0.666625 42.3031 -0.666681 43.8427 1.99996L51.8651 15.8955L55.2929 11.7412C56.8928 9.80139 59.8648 9.80136 61.4648 11.7412L104.942 64.455C107.093 67.0639 105.238 70.9997 101.856 71H64.4374C61.247 68.9192 57.923 65.4256 66.3788 56.5C75.3786 47.0001 65.3788 39 53.5321 36.2656C31.8407 31.2592 48.3466 19.4444 51.8651 15.8955C41.4772 20.7964 24.9815 33.6296 43.4784 41.3359C61.9755 49.0422 45.2069 58.2165 36.3788 62C33.0523 63.4256 28.8242 64.8522 25.4081 71H4.00577C0.926566 71 -0.9977 67.6666 0.5419 65L36.9149 1.99996Z" fill="black"/>
</svg>
